<mxfile host="app.diagrams.net" modified="2024-04-25T07:58:27.275Z" agent="Mozilla/5.0 (Windows NT 10.0; Win64; x64; rv:125.0) Gecko/20100101 Firefox/125.0" etag="1zXalWKNSEKm3FXtjU3o" version="24.2.9" type="device">
  <diagram name="Side-1" id="wNzbfK5Ckg5dXfpUOui7">
    <mxGraphModel dx="2074" dy="1114" grid="1" gridSize="10" guides="1" tooltips="1" connect="1" arrows="1" fold="1" page="1" pageScale="1" pageWidth="827" pageHeight="1169" math="0" shadow="0">
      <root>
        <mxCell id="0" />
        <mxCell id="1" parent="0" />
        <mxCell id="BHY5QhDd3YbMcTNI0PtL-1" value="&lt;div&gt;Master&lt;/div&gt;" style="rounded=1;whiteSpace=wrap;html=1;" vertex="1" parent="1">
          <mxGeometry x="100" y="690" width="120" height="60" as="geometry" />
        </mxCell>
        <mxCell id="BHY5QhDd3YbMcTNI0PtL-3" value="&lt;div&gt;Developer&lt;/div&gt;" style="rounded=1;whiteSpace=wrap;html=1;" vertex="1" parent="1">
          <mxGeometry x="260" y="690" width="120" height="60" as="geometry" />
        </mxCell>
        <mxCell id="BHY5QhDd3YbMcTNI0PtL-4" value="" style="endArrow=classic;html=1;rounded=0;exitX=1;exitY=0.5;exitDx=0;exitDy=0;" edge="1" parent="1" source="BHY5QhDd3YbMcTNI0PtL-1" target="BHY5QhDd3YbMcTNI0PtL-3">
          <mxGeometry width="50" height="50" relative="1" as="geometry">
            <mxPoint x="390" y="590" as="sourcePoint" />
            <mxPoint x="440" y="540" as="targetPoint" />
          </mxGeometry>
        </mxCell>
        <mxCell id="BHY5QhDd3YbMcTNI0PtL-5" value="Commit" style="ellipse;whiteSpace=wrap;html=1;aspect=fixed;" vertex="1" parent="1">
          <mxGeometry x="290" y="590" width="60" height="60" as="geometry" />
        </mxCell>
        <mxCell id="BHY5QhDd3YbMcTNI0PtL-6" value="Commit" style="ellipse;whiteSpace=wrap;html=1;aspect=fixed;" vertex="1" parent="1">
          <mxGeometry x="290" y="490" width="60" height="60" as="geometry" />
        </mxCell>
        <mxCell id="BHY5QhDd3YbMcTNI0PtL-23" style="edgeStyle=orthogonalEdgeStyle;rounded=0;orthogonalLoop=1;jettySize=auto;html=1;exitX=1;exitY=0.5;exitDx=0;exitDy=0;entryX=0;entryY=0.5;entryDx=0;entryDy=0;" edge="1" parent="1" source="BHY5QhDd3YbMcTNI0PtL-7" target="BHY5QhDd3YbMcTNI0PtL-19">
          <mxGeometry relative="1" as="geometry" />
        </mxCell>
        <mxCell id="BHY5QhDd3YbMcTNI0PtL-7" value="Commit" style="ellipse;whiteSpace=wrap;html=1;aspect=fixed;" vertex="1" parent="1">
          <mxGeometry x="290" y="390" width="60" height="60" as="geometry" />
        </mxCell>
        <mxCell id="BHY5QhDd3YbMcTNI0PtL-8" value="Merge" style="ellipse;whiteSpace=wrap;html=1;" vertex="1" parent="1">
          <mxGeometry x="120" y="320" width="80" height="60" as="geometry" />
        </mxCell>
        <mxCell id="BHY5QhDd3YbMcTNI0PtL-10" value="" style="endArrow=none;html=1;rounded=0;exitX=0.5;exitY=0;exitDx=0;exitDy=0;entryX=0.5;entryY=1;entryDx=0;entryDy=0;" edge="1" parent="1" source="BHY5QhDd3YbMcTNI0PtL-3" target="BHY5QhDd3YbMcTNI0PtL-5">
          <mxGeometry width="50" height="50" relative="1" as="geometry">
            <mxPoint x="390" y="590" as="sourcePoint" />
            <mxPoint x="440" y="540" as="targetPoint" />
          </mxGeometry>
        </mxCell>
        <mxCell id="BHY5QhDd3YbMcTNI0PtL-11" value="" style="endArrow=none;html=1;rounded=0;entryX=0.5;entryY=1;entryDx=0;entryDy=0;" edge="1" parent="1" target="BHY5QhDd3YbMcTNI0PtL-8">
          <mxGeometry width="50" height="50" relative="1" as="geometry">
            <mxPoint x="160" y="690" as="sourcePoint" />
            <mxPoint x="210" y="640" as="targetPoint" />
          </mxGeometry>
        </mxCell>
        <mxCell id="BHY5QhDd3YbMcTNI0PtL-12" value="" style="endArrow=none;html=1;rounded=0;exitX=0.5;exitY=0;exitDx=0;exitDy=0;entryX=0.5;entryY=1;entryDx=0;entryDy=0;" edge="1" parent="1" source="BHY5QhDd3YbMcTNI0PtL-5" target="BHY5QhDd3YbMcTNI0PtL-6">
          <mxGeometry width="50" height="50" relative="1" as="geometry">
            <mxPoint x="390" y="590" as="sourcePoint" />
            <mxPoint x="440" y="540" as="targetPoint" />
          </mxGeometry>
        </mxCell>
        <mxCell id="BHY5QhDd3YbMcTNI0PtL-13" value="" style="endArrow=none;html=1;rounded=0;exitX=0.5;exitY=0;exitDx=0;exitDy=0;entryX=0.5;entryY=1;entryDx=0;entryDy=0;" edge="1" parent="1" source="BHY5QhDd3YbMcTNI0PtL-6" target="BHY5QhDd3YbMcTNI0PtL-7">
          <mxGeometry width="50" height="50" relative="1" as="geometry">
            <mxPoint x="390" y="590" as="sourcePoint" />
            <mxPoint x="440" y="540" as="targetPoint" />
          </mxGeometry>
        </mxCell>
        <mxCell id="BHY5QhDd3YbMcTNI0PtL-14" value="" style="endArrow=none;html=1;rounded=0;exitX=0.5;exitY=0;exitDx=0;exitDy=0;entryX=0.5;entryY=1;entryDx=0;entryDy=0;" edge="1" parent="1" source="BHY5QhDd3YbMcTNI0PtL-8" target="BHY5QhDd3YbMcTNI0PtL-18">
          <mxGeometry width="50" height="50" relative="1" as="geometry">
            <mxPoint x="390" y="590" as="sourcePoint" />
            <mxPoint x="160" y="280" as="targetPoint" />
          </mxGeometry>
        </mxCell>
        <mxCell id="BHY5QhDd3YbMcTNI0PtL-15" value="" style="endArrow=classic;html=1;rounded=0;entryX=1;entryY=0.5;entryDx=0;entryDy=0;exitX=0;exitY=0.5;exitDx=0;exitDy=0;" edge="1" parent="1" source="BHY5QhDd3YbMcTNI0PtL-7" target="BHY5QhDd3YbMcTNI0PtL-8">
          <mxGeometry width="50" height="50" relative="1" as="geometry">
            <mxPoint x="280" y="420" as="sourcePoint" />
            <mxPoint x="200" y="360" as="targetPoint" />
            <Array as="points">
              <mxPoint x="250" y="420" />
              <mxPoint x="250" y="350" />
            </Array>
          </mxGeometry>
        </mxCell>
        <mxCell id="BHY5QhDd3YbMcTNI0PtL-16" value="" style="endArrow=none;html=1;rounded=0;exitX=0.5;exitY=0;exitDx=0;exitDy=0;entryX=0.5;entryY=1;entryDx=0;entryDy=0;" edge="1" parent="1" source="BHY5QhDd3YbMcTNI0PtL-7" target="BHY5QhDd3YbMcTNI0PtL-17">
          <mxGeometry width="50" height="50" relative="1" as="geometry">
            <mxPoint x="390" y="470" as="sourcePoint" />
            <mxPoint x="320" y="320" as="targetPoint" />
          </mxGeometry>
        </mxCell>
        <mxCell id="BHY5QhDd3YbMcTNI0PtL-24" style="edgeStyle=orthogonalEdgeStyle;rounded=0;orthogonalLoop=1;jettySize=auto;html=1;exitX=0;exitY=0.5;exitDx=0;exitDy=0;entryX=1;entryY=0.5;entryDx=0;entryDy=0;" edge="1" parent="1" source="BHY5QhDd3YbMcTNI0PtL-17" target="BHY5QhDd3YbMcTNI0PtL-18">
          <mxGeometry relative="1" as="geometry" />
        </mxCell>
        <mxCell id="BHY5QhDd3YbMcTNI0PtL-17" value="Merge" style="ellipse;whiteSpace=wrap;html=1;" vertex="1" parent="1">
          <mxGeometry x="280" y="210" width="80" height="60" as="geometry" />
        </mxCell>
        <mxCell id="BHY5QhDd3YbMcTNI0PtL-18" value="Merge" style="ellipse;whiteSpace=wrap;html=1;" vertex="1" parent="1">
          <mxGeometry x="120" y="120" width="80" height="60" as="geometry" />
        </mxCell>
        <mxCell id="BHY5QhDd3YbMcTNI0PtL-19" value="Feature/Employee" style="rounded=1;whiteSpace=wrap;html=1;" vertex="1" parent="1">
          <mxGeometry x="440" y="390" width="120" height="60" as="geometry" />
        </mxCell>
        <mxCell id="BHY5QhDd3YbMcTNI0PtL-22" style="edgeStyle=orthogonalEdgeStyle;rounded=0;orthogonalLoop=1;jettySize=auto;html=1;entryX=1;entryY=0.5;entryDx=0;entryDy=0;exitX=0.5;exitY=0;exitDx=0;exitDy=0;" edge="1" parent="1" source="BHY5QhDd3YbMcTNI0PtL-20" target="BHY5QhDd3YbMcTNI0PtL-17">
          <mxGeometry relative="1" as="geometry" />
        </mxCell>
        <mxCell id="BHY5QhDd3YbMcTNI0PtL-20" value="Commit" style="ellipse;whiteSpace=wrap;html=1;aspect=fixed;" vertex="1" parent="1">
          <mxGeometry x="470" y="290" width="60" height="60" as="geometry" />
        </mxCell>
        <mxCell id="BHY5QhDd3YbMcTNI0PtL-21" value="" style="endArrow=none;html=1;rounded=0;exitX=0.5;exitY=0;exitDx=0;exitDy=0;entryX=0.5;entryY=1;entryDx=0;entryDy=0;" edge="1" parent="1" source="BHY5QhDd3YbMcTNI0PtL-19" target="BHY5QhDd3YbMcTNI0PtL-20">
          <mxGeometry width="50" height="50" relative="1" as="geometry">
            <mxPoint x="499.5" y="380" as="sourcePoint" />
            <mxPoint x="620" y="330" as="targetPoint" />
          </mxGeometry>
        </mxCell>
        <mxCell id="BHY5QhDd3YbMcTNI0PtL-25" value="" style="endArrow=none;html=1;rounded=0;exitX=0.5;exitY=0;exitDx=0;exitDy=0;" edge="1" parent="1" source="BHY5QhDd3YbMcTNI0PtL-17">
          <mxGeometry width="50" height="50" relative="1" as="geometry">
            <mxPoint x="390" y="470" as="sourcePoint" />
            <mxPoint x="320" y="80" as="targetPoint" />
          </mxGeometry>
        </mxCell>
        <mxCell id="BHY5QhDd3YbMcTNI0PtL-26" value="" style="endArrow=none;html=1;rounded=0;exitX=0.5;exitY=0;exitDx=0;exitDy=0;" edge="1" parent="1" source="BHY5QhDd3YbMcTNI0PtL-18">
          <mxGeometry width="50" height="50" relative="1" as="geometry">
            <mxPoint x="159.5" y="110" as="sourcePoint" />
            <mxPoint x="160" y="80" as="targetPoint" />
          </mxGeometry>
        </mxCell>
      </root>
    </mxGraphModel>
  </diagram>
</mxfile>
